<mxfile host="app.diagrams.net" modified="2021-12-29T11:33:09.756Z" agent="5.0 (X11; Linux x86_64) AppleWebKit/537.36 (KHTML, like Gecko) Chrome/96.0.4664.110 Safari/537.36" etag="hokwrS8HV6Tddo4LGoIv" version="16.1.0" type="github">
  <diagram id="NJLnzYTnEX_LehXJbEt6" name="Page-1">
    <mxGraphModel dx="2591" dy="800" grid="1" gridSize="10" guides="1" tooltips="1" connect="1" arrows="1" fold="1" page="1" pageScale="1" pageWidth="1169" pageHeight="827" math="0" shadow="0">
      <root>
        <mxCell id="0" />
        <mxCell id="1" parent="0" />
        <mxCell id="JV0VXHmtkLzdFHM5nCtM-34" value="" style="rounded=0;whiteSpace=wrap;html=1;" parent="1" vertex="1">
          <mxGeometry x="1069" y="274" width="441" height="340" as="geometry" />
        </mxCell>
        <mxCell id="JV0VXHmtkLzdFHM5nCtM-25" style="edgeStyle=orthogonalEdgeStyle;rounded=0;orthogonalLoop=1;jettySize=auto;html=1;" parent="1" source="JV0VXHmtkLzdFHM5nCtM-1" target="JV0VXHmtkLzdFHM5nCtM-2" edge="1">
          <mxGeometry relative="1" as="geometry" />
        </mxCell>
        <mxCell id="JV0VXHmtkLzdFHM5nCtM-1" value="" style="sketch=0;aspect=fixed;html=1;points=[];align=center;image;fontSize=12;image=img/lib/mscae/VM_Linux.svg;" parent="1" vertex="1">
          <mxGeometry x="-0.29999999999999716" y="395" width="119.57" height="110" as="geometry" />
        </mxCell>
        <mxCell id="JV0VXHmtkLzdFHM5nCtM-26" style="edgeStyle=orthogonalEdgeStyle;rounded=0;orthogonalLoop=1;jettySize=auto;html=1;" parent="1" source="JV0VXHmtkLzdFHM5nCtM-2" target="JV0VXHmtkLzdFHM5nCtM-5" edge="1">
          <mxGeometry relative="1" as="geometry" />
        </mxCell>
        <mxCell id="JV0VXHmtkLzdFHM5nCtM-2" value="" style="image;html=1;image=img/lib/clip_art/networking/Firewall-page1_128x128.png" parent="1" vertex="1">
          <mxGeometry x="320" y="410" width="80" height="80" as="geometry" />
        </mxCell>
        <mxCell id="JV0VXHmtkLzdFHM5nCtM-3" value="" style="outlineConnect=0;dashed=0;verticalLabelPosition=bottom;verticalAlign=top;align=center;html=1;shape=mxgraph.aws3.internet_gateway;fillColor=#F58534;gradientColor=none;" parent="1" vertex="1">
          <mxGeometry x="623" y="20" width="69" height="72" as="geometry" />
        </mxCell>
        <mxCell id="JV0VXHmtkLzdFHM5nCtM-29" style="edgeStyle=orthogonalEdgeStyle;rounded=0;orthogonalLoop=1;jettySize=auto;html=1;" parent="1" source="JV0VXHmtkLzdFHM5nCtM-4" edge="1">
          <mxGeometry relative="1" as="geometry">
            <mxPoint x="620" y="60" as="targetPoint" />
          </mxGeometry>
        </mxCell>
        <mxCell id="JV0VXHmtkLzdFHM5nCtM-4" value="" style="image;html=1;image=img/lib/clip_art/networking/Wireless_Router_128x128.png" parent="1" vertex="1">
          <mxGeometry x="320" y="20" width="80" height="80" as="geometry" />
        </mxCell>
        <mxCell id="JV0VXHmtkLzdFHM5nCtM-27" style="edgeStyle=orthogonalEdgeStyle;rounded=0;orthogonalLoop=1;jettySize=auto;html=1;entryX=0.5;entryY=1;entryDx=0;entryDy=0;" parent="1" source="JV0VXHmtkLzdFHM5nCtM-5" target="JV0VXHmtkLzdFHM5nCtM-4" edge="1">
          <mxGeometry relative="1" as="geometry" />
        </mxCell>
        <mxCell id="JV0VXHmtkLzdFHM5nCtM-5" value="" style="pointerEvents=1;shadow=0;dashed=0;html=1;strokeColor=none;fillColor=#4495D1;labelPosition=center;verticalLabelPosition=bottom;verticalAlign=top;align=center;outlineConnect=0;shape=mxgraph.veeam.vmware_host;" parent="1" vertex="1">
          <mxGeometry x="306" y="206" width="108" height="104" as="geometry" />
        </mxCell>
        <mxCell id="JV0VXHmtkLzdFHM5nCtM-8" value="" style="shape=image;verticalLabelPosition=bottom;labelBackgroundColor=#ffffff;verticalAlign=top;aspect=fixed;imageAspect=0;image=https://images.squarespace-cdn.com/content/v1/5ab952d7506fbeaa1f512f11/1536486867934-SDIZMFO02VW6CTEAVDGZ/security-onion.png;" parent="1" vertex="1">
          <mxGeometry x="298.1" y="738" width="123.81" height="60" as="geometry" />
        </mxCell>
        <mxCell id="JV0VXHmtkLzdFHM5nCtM-10" value="" style="shape=image;verticalLabelPosition=bottom;labelBackgroundColor=#ffffff;verticalAlign=top;aspect=fixed;imageAspect=0;image=https://upload.wikimedia.org/wikipedia/commons/b/b9/PfSense_logo.png;" parent="1" vertex="1">
          <mxGeometry x="298.1" y="490" width="101.96" height="30" as="geometry" />
        </mxCell>
        <mxCell id="JV0VXHmtkLzdFHM5nCtM-11" value="" style="shape=image;verticalLabelPosition=bottom;labelBackgroundColor=#ffffff;verticalAlign=top;aspect=fixed;imageAspect=0;image=https://upload.wikimedia.org/wikipedia/commons/thumb/1/1d/Splunk_logo.svg/2560px-Splunk_logo.svg.png;" parent="1" vertex="1">
          <mxGeometry x="650" y="284" width="101.96" height="30" as="geometry" />
        </mxCell>
        <mxCell id="JV0VXHmtkLzdFHM5nCtM-13" value="" style="shape=image;verticalLabelPosition=bottom;labelBackgroundColor=#ffffff;verticalAlign=top;aspect=fixed;imageAspect=0;image=https://upload.wikimedia.org/wikipedia/commons/thumb/4/4b/Kali_Linux_2.0_wordmark.svg/1280px-Kali_Linux_2.0_wordmark.svg.png;" parent="1" vertex="1">
          <mxGeometry x="25.5" y="508" width="67.97" height="40" as="geometry" />
        </mxCell>
        <mxCell id="JV0VXHmtkLzdFHM5nCtM-14" value="" style="aspect=fixed;perimeter=ellipsePerimeter;html=1;align=center;shadow=0;dashed=0;spacingTop=3;image;image=img/lib/active_directory/generic_server.svg;" parent="1" vertex="1">
          <mxGeometry x="665.78" y="194" width="50.4" height="90" as="geometry" />
        </mxCell>
        <mxCell id="JV0VXHmtkLzdFHM5nCtM-15" value="" style="shape=image;html=1;verticalAlign=top;verticalLabelPosition=bottom;labelBackgroundColor=#ffffff;imageAspect=0;aspect=fixed;image=https://cdn0.iconfinder.com/data/icons/font-awesome-solid-vol-2/512/greater-than-128.png;imageBackground=#50C750;" parent="1" vertex="1">
          <mxGeometry x="830" y="343" width="50" height="50" as="geometry" />
        </mxCell>
        <mxCell id="JV0VXHmtkLzdFHM5nCtM-18" value="" style="shape=image;html=1;verticalAlign=top;verticalLabelPosition=bottom;labelBackgroundColor=#ffffff;imageAspect=0;aspect=fixed;image=https://cdn2.iconfinder.com/data/icons/whcompare-isometric-web-hosting-servers/50/desktop-pc-128.png" parent="1" vertex="1">
          <mxGeometry x="1069" y="394" width="90" height="90" as="geometry" />
        </mxCell>
        <mxCell id="JV0VXHmtkLzdFHM5nCtM-30" style="edgeStyle=orthogonalEdgeStyle;rounded=0;orthogonalLoop=1;jettySize=auto;html=1;" parent="1" source="JV0VXHmtkLzdFHM5nCtM-19" edge="1">
          <mxGeometry relative="1" as="geometry">
            <mxPoint x="360" y="550" as="targetPoint" />
          </mxGeometry>
        </mxCell>
        <mxCell id="JV0VXHmtkLzdFHM5nCtM-19" value="" style="shape=image;html=1;verticalAlign=top;verticalLabelPosition=bottom;labelBackgroundColor=#ffffff;imageAspect=0;aspect=fixed;image=https://cdn2.iconfinder.com/data/icons/whcompare-isometric-web-hosting-servers/50/value-server-128.png" parent="1" vertex="1">
          <mxGeometry x="310" y="645" width="100" height="100" as="geometry" />
        </mxCell>
        <mxCell id="JV0VXHmtkLzdFHM5nCtM-20" value="" style="shape=image;html=1;verticalAlign=top;verticalLabelPosition=bottom;labelBackgroundColor=#ffffff;imageAspect=0;aspect=fixed;image=https://cdn4.iconfinder.com/data/icons/desktop-app-free/32/Desktop_Desktop_App_PC_Monitor_CPU-128.png" parent="1" vertex="1">
          <mxGeometry x="1230" y="280" width="78" height="78" as="geometry" />
        </mxCell>
        <mxCell id="JV0VXHmtkLzdFHM5nCtM-21" value="" style="shape=image;html=1;verticalAlign=top;verticalLabelPosition=bottom;labelBackgroundColor=#ffffff;imageAspect=0;aspect=fixed;image=https://cdn4.iconfinder.com/data/icons/desktop-app-free/32/Desktop_Desktop_App_PC_Monitor_CPU-128.png" parent="1" vertex="1">
          <mxGeometry x="1290" y="384" width="78" height="78" as="geometry" />
        </mxCell>
        <mxCell id="JV0VXHmtkLzdFHM5nCtM-22" value="" style="shape=image;verticalLabelPosition=bottom;labelBackgroundColor=#ffffff;verticalAlign=top;aspect=fixed;imageAspect=0;image=https://seeklogo.com/images/U/ubuntu-logo-EED17E0B9E-seeklogo.com.png;" parent="1" vertex="1">
          <mxGeometry x="1140" y="523.4" width="73.68" height="58.7" as="geometry" />
        </mxCell>
        <mxCell id="JV0VXHmtkLzdFHM5nCtM-23" value="" style="shape=image;verticalLabelPosition=bottom;labelBackgroundColor=#ffffff;verticalAlign=top;aspect=fixed;imageAspect=0;image=https://www.techrepublic.com/a/hub/i/r/2021/02/02/9bfc8892-4b9c-4909-9162-2bf73a6c07c3/resize/1200x900/c70d5b9d83072f3df88a97fa11ea9597/almalinuxhero.jpg;" parent="1" vertex="1">
          <mxGeometry x="1260" y="520" width="90.06" height="70.49" as="geometry" />
        </mxCell>
        <mxCell id="JV0VXHmtkLzdFHM5nCtM-24" value="" style="shape=image;verticalLabelPosition=bottom;labelBackgroundColor=#ffffff;verticalAlign=top;aspect=fixed;imageAspect=0;image=https://www.spectrumequity.com/yir-2019-ui/images/logo-vulnhub.png;" parent="1" vertex="1">
          <mxGeometry x="1380" y="531.24" width="88.89" height="48" as="geometry" />
        </mxCell>
        <mxCell id="JV0VXHmtkLzdFHM5nCtM-32" value="" style="endArrow=classic;html=1;rounded=0;exitX=1;exitY=0.25;exitDx=0;exitDy=0;entryX=-0.015;entryY=0.644;entryDx=0;entryDy=0;entryPerimeter=0;" parent="1" source="JV0VXHmtkLzdFHM5nCtM-2" target="JV0VXHmtkLzdFHM5nCtM-14" edge="1">
          <mxGeometry width="50" height="50" relative="1" as="geometry">
            <mxPoint x="530" y="370" as="sourcePoint" />
            <mxPoint x="580" y="320" as="targetPoint" />
          </mxGeometry>
        </mxCell>
        <mxCell id="JV0VXHmtkLzdFHM5nCtM-33" value="" style="endArrow=classic;html=1;rounded=0;entryX=1;entryY=0.5;entryDx=0;entryDy=0;" parent="1" source="JV0VXHmtkLzdFHM5nCtM-18" target="JV0VXHmtkLzdFHM5nCtM-14" edge="1">
          <mxGeometry width="50" height="50" relative="1" as="geometry">
            <mxPoint x="860" y="370" as="sourcePoint" />
            <mxPoint x="720" y="320" as="targetPoint" />
          </mxGeometry>
        </mxCell>
        <mxCell id="JV0VXHmtkLzdFHM5nCtM-36" value="" style="endArrow=classic;html=1;rounded=0;entryX=1;entryY=0.5;entryDx=0;entryDy=0;" parent="1" target="JV0VXHmtkLzdFHM5nCtM-2" edge="1">
          <mxGeometry width="50" height="50" relative="1" as="geometry">
            <mxPoint x="1070" y="450" as="sourcePoint" />
            <mxPoint x="640" y="330" as="targetPoint" />
          </mxGeometry>
        </mxCell>
        <mxCell id="JV0VXHmtkLzdFHM5nCtM-37" value="" style="endArrow=classic;html=1;rounded=0;entryX=1;entryY=0.5;entryDx=0;entryDy=0;" parent="1" target="JV0VXHmtkLzdFHM5nCtM-19" edge="1">
          <mxGeometry width="50" height="50" relative="1" as="geometry">
            <mxPoint x="710" y="450" as="sourcePoint" />
            <mxPoint x="640" y="570" as="targetPoint" />
          </mxGeometry>
        </mxCell>
        <mxCell id="JV0VXHmtkLzdFHM5nCtM-39" value="" style="shape=crossbar;whiteSpace=wrap;html=1;rounded=1;" parent="1" vertex="1">
          <mxGeometry x="1049.5" y="497" width="480" height="20" as="geometry" />
        </mxCell>
        <mxCell id="JV0VXHmtkLzdFHM5nCtM-40" value="" style="endArrow=classic;html=1;rounded=0;exitX=0;exitY=0.5;exitDx=0;exitDy=0;" parent="1" source="JV0VXHmtkLzdFHM5nCtM-20" edge="1">
          <mxGeometry width="50" height="50" relative="1" as="geometry">
            <mxPoint x="1100" y="420" as="sourcePoint" />
            <mxPoint x="1150" y="420" as="targetPoint" />
          </mxGeometry>
        </mxCell>
        <mxCell id="JV0VXHmtkLzdFHM5nCtM-41" value="" style="endArrow=classic;html=1;rounded=0;exitX=0;exitY=0.5;exitDx=0;exitDy=0;" parent="1" source="JV0VXHmtkLzdFHM5nCtM-21" edge="1">
          <mxGeometry width="50" height="50" relative="1" as="geometry">
            <mxPoint x="1100" y="420" as="sourcePoint" />
            <mxPoint x="1150" y="439" as="targetPoint" />
          </mxGeometry>
        </mxCell>
        <mxCell id="JV0VXHmtkLzdFHM5nCtM-42" value="&lt;font face=&quot;Courier New&quot; style=&quot;font-size: 18px&quot;&gt;&lt;b&gt;Internet&lt;/b&gt;&lt;/font&gt;" style="text;html=1;resizable=0;autosize=1;align=center;verticalAlign=middle;points=[];fillColor=none;strokeColor=none;rounded=0;fontStyle=0" parent="1" vertex="1">
          <mxGeometry x="607.5" y="94" width="100" height="20" as="geometry" />
        </mxCell>
        <mxCell id="JV0VXHmtkLzdFHM5nCtM-43" value="&lt;font face=&quot;Courier New&quot; style=&quot;font-size: 18px&quot;&gt;&lt;b&gt;WiFi Router&amp;nbsp;&lt;/b&gt;&lt;/font&gt;" style="text;html=1;resizable=0;autosize=1;align=center;verticalAlign=middle;points=[];fillColor=none;strokeColor=none;rounded=0;" parent="1" vertex="1">
          <mxGeometry x="276" y="5" width="150" height="20" as="geometry" />
        </mxCell>
        <mxCell id="JV0VXHmtkLzdFHM5nCtM-44" value="&lt;font face=&quot;Courier New&quot;&gt;&lt;font style=&quot;font-size: 14px&quot;&gt;&lt;b&gt;Universal&lt;br&gt;Forwarder&lt;/b&gt;&lt;/font&gt;&lt;br&gt;&lt;/font&gt;" style="text;html=1;resizable=0;autosize=1;align=center;verticalAlign=middle;points=[];fillColor=none;strokeColor=none;rounded=0;" parent="1" vertex="1">
          <mxGeometry x="810" y="394" width="90" height="40" as="geometry" />
        </mxCell>
        <mxCell id="619gpYkLVVEBwFzS93mg-1" value="&lt;font face=&quot;Courier New&quot;&gt;&lt;b&gt;&lt;font style=&quot;font-size: 14px&quot;&gt;Domain&lt;br&gt;Controller&lt;/font&gt;&lt;br&gt;&lt;/b&gt;&lt;/font&gt;" style="text;html=1;resizable=0;autosize=1;align=center;verticalAlign=middle;points=[];fillColor=none;strokeColor=none;rounded=0;" parent="1" vertex="1">
          <mxGeometry x="1110" y="462" width="100" height="40" as="geometry" />
        </mxCell>
        <mxCell id="619gpYkLVVEBwFzS93mg-2" value="&lt;font face=&quot;Courier New&quot; style=&quot;font-size: 24px&quot;&gt;&lt;b&gt;SIEM&lt;/b&gt;&lt;/font&gt;" style="text;html=1;resizable=0;autosize=1;align=center;verticalAlign=middle;points=[];fillColor=none;strokeColor=none;rounded=0;fontStyle=0" parent="1" vertex="1">
          <mxGeometry x="661.98" y="313" width="70" height="20" as="geometry" />
        </mxCell>
        <mxCell id="619gpYkLVVEBwFzS93mg-3" value="&lt;font face=&quot;Courier New&quot; style=&quot;font-size: 24px&quot;&gt;&lt;b&gt;IDS/IPS&lt;/b&gt;&lt;/font&gt;" style="text;html=1;resizable=0;autosize=1;align=center;verticalAlign=middle;points=[];fillColor=none;strokeColor=none;rounded=0;fontStyle=0" parent="1" vertex="1">
          <mxGeometry x="295" y="798" width="120" height="20" as="geometry" />
        </mxCell>
        <mxCell id="619gpYkLVVEBwFzS93mg-4" value="&lt;font face=&quot;Courier New&quot; style=&quot;font-size: 24px&quot;&gt;&lt;b&gt;192.168.1.10&lt;/b&gt;&lt;/font&gt;" style="text;html=1;resizable=0;autosize=1;align=center;verticalAlign=middle;points=[];fillColor=none;strokeColor=none;rounded=0;fontStyle=0" parent="1" vertex="1">
          <mxGeometry x="-35.51999999999998" y="553.24" width="190" height="20" as="geometry" />
        </mxCell>
        <mxCell id="619gpYkLVVEBwFzS93mg-5" value="&lt;font face=&quot;Courier New&quot; style=&quot;font-size: 24px&quot;&gt;&lt;b&gt;em1&lt;/b&gt;&lt;/font&gt;" style="text;html=1;resizable=0;autosize=1;align=center;verticalAlign=middle;points=[];fillColor=none;strokeColor=none;rounded=0;fontStyle=0" parent="1" vertex="1">
          <mxGeometry x="29.480000000000018" y="579.24" width="60" height="20" as="geometry" />
        </mxCell>
        <mxCell id="619gpYkLVVEBwFzS93mg-6" value="&lt;font face=&quot;Courier New&quot; style=&quot;font-size: 24px&quot;&gt;&lt;b&gt;192.168.3.10&lt;/b&gt;&lt;/font&gt;" style="text;html=1;resizable=0;autosize=1;align=center;verticalAlign=middle;points=[];fillColor=none;strokeColor=none;rounded=0;fontStyle=0" parent="1" vertex="1">
          <mxGeometry x="254.08" y="830" width="190" height="20" as="geometry" />
        </mxCell>
        <mxCell id="619gpYkLVVEBwFzS93mg-7" value="&lt;font face=&quot;Courier New&quot; style=&quot;font-size: 24px&quot;&gt;&lt;b&gt;em3&lt;/b&gt;&lt;/font&gt;" style="text;html=1;resizable=0;autosize=1;align=center;verticalAlign=middle;points=[];fillColor=none;strokeColor=none;rounded=0;fontStyle=0" parent="1" vertex="1">
          <mxGeometry x="319.08000000000004" y="856" width="60" height="20" as="geometry" />
        </mxCell>
        <mxCell id="619gpYkLVVEBwFzS93mg-8" value="&lt;font face=&quot;Courier New&quot; style=&quot;font-size: 24px&quot;&gt;&lt;b&gt;192.168.1.1&lt;/b&gt;&lt;/font&gt;" style="text;html=1;resizable=0;autosize=1;align=center;verticalAlign=middle;points=[];fillColor=none;strokeColor=none;rounded=0;fontStyle=0" parent="1" vertex="1">
          <mxGeometry x="266.00000000000006" y="524" width="170" height="20" as="geometry" />
        </mxCell>
        <mxCell id="sqYq_Rw1OMMjbMmZ6eeA-1" value="&lt;font face=&quot;Courier New&quot; style=&quot;font-size: 24px&quot;&gt;&lt;b&gt;Vmnet 2&lt;/b&gt;&lt;/font&gt;" style="text;html=1;resizable=0;autosize=1;align=center;verticalAlign=middle;points=[];fillColor=none;strokeColor=none;rounded=0;fontStyle=0" parent="1" vertex="1">
          <mxGeometry x="162" y="429" width="120" height="20" as="geometry" />
        </mxCell>
        <mxCell id="sqYq_Rw1OMMjbMmZ6eeA-2" value="&lt;font face=&quot;Courier New&quot; style=&quot;font-size: 24px&quot;&gt;&lt;b&gt;Vmnet 6&lt;/b&gt;&lt;/font&gt;" style="text;html=1;resizable=0;autosize=1;align=center;verticalAlign=middle;points=[];fillColor=none;strokeColor=none;rounded=0;fontStyle=0;rotation=-30;" parent="1" vertex="1">
          <mxGeometry x="465" y="316" width="120" height="20" as="geometry" />
        </mxCell>
        <mxCell id="sqYq_Rw1OMMjbMmZ6eeA-3" value="&lt;font face=&quot;Courier New&quot; style=&quot;font-size: 24px&quot;&gt;&lt;b&gt;Vmnet 3&lt;/b&gt;&lt;/font&gt;" style="text;html=1;resizable=0;autosize=1;align=center;verticalAlign=middle;points=[];fillColor=none;strokeColor=none;rounded=0;fontStyle=0" parent="1" vertex="1">
          <mxGeometry x="623" y="429" width="120" height="20" as="geometry" />
        </mxCell>
        <mxCell id="sqYq_Rw1OMMjbMmZ6eeA-4" value="&lt;font face=&quot;Courier New&quot; style=&quot;font-size: 24px&quot;&gt;&lt;b&gt;Vmnet 5&lt;/b&gt;&lt;/font&gt;" style="text;html=1;resizable=0;autosize=1;align=center;verticalAlign=middle;points=[];fillColor=none;strokeColor=none;rounded=0;fontStyle=0" parent="1" vertex="1">
          <mxGeometry x="460" y="545.24" width="120" height="20" as="geometry" />
        </mxCell>
        <mxCell id="sqYq_Rw1OMMjbMmZ6eeA-5" value="&lt;font face=&quot;Courier New&quot; style=&quot;font-size: 24px&quot;&gt;&lt;b&gt;Vmnet 4&lt;/b&gt;&lt;/font&gt;" style="text;html=1;resizable=0;autosize=1;align=center;verticalAlign=middle;points=[];fillColor=none;strokeColor=none;rounded=0;fontStyle=0" parent="1" vertex="1">
          <mxGeometry x="240" y="594" width="120" height="20" as="geometry" />
        </mxCell>
        <mxCell id="sqYq_Rw1OMMjbMmZ6eeA-6" value="&lt;font face=&quot;Courier New&quot; style=&quot;font-size: 24px&quot;&gt;&lt;b&gt;em5&lt;/b&gt;&lt;/font&gt;" style="text;html=1;resizable=0;autosize=1;align=center;verticalAlign=middle;points=[];fillColor=none;strokeColor=none;rounded=0;fontStyle=0" parent="1" vertex="1">
          <mxGeometry x="660.98" y="332" width="60" height="20" as="geometry" />
        </mxCell>
        <mxCell id="sqYq_Rw1OMMjbMmZ6eeA-7" value="&lt;font face=&quot;Courier New&quot; style=&quot;font-size: 24px&quot;&gt;&lt;b&gt;em4&lt;/b&gt;&lt;/font&gt;" style="text;html=1;resizable=0;autosize=1;align=center;verticalAlign=middle;points=[];fillColor=none;strokeColor=none;rounded=0;fontStyle=0" parent="1" vertex="1">
          <mxGeometry x="700" y="477" width="60" height="20" as="geometry" />
        </mxCell>
        <mxCell id="sqYq_Rw1OMMjbMmZ6eeA-8" value="&lt;font face=&quot;Courier New&quot;&gt;&lt;font style=&quot;font-size: 14px&quot;&gt;&lt;b&gt;Span Port&lt;/b&gt;&lt;/font&gt;&lt;br&gt;&lt;/font&gt;" style="text;html=1;resizable=0;autosize=1;align=center;verticalAlign=middle;points=[];fillColor=none;strokeColor=none;rounded=0;" parent="1" vertex="1">
          <mxGeometry x="700" y="454" width="90" height="20" as="geometry" />
        </mxCell>
        <mxCell id="sqYq_Rw1OMMjbMmZ6eeA-9" value="&lt;font face=&quot;Courier New&quot; style=&quot;font-size: 24px&quot;&gt;&lt;b&gt;192.168.4.10&lt;/b&gt;&lt;/font&gt;" style="text;html=1;resizable=0;autosize=1;align=center;verticalAlign=middle;points=[];fillColor=none;strokeColor=none;rounded=0;fontStyle=0" parent="1" vertex="1">
          <mxGeometry x="588" y="174" width="190" height="20" as="geometry" />
        </mxCell>
        <mxCell id="sqYq_Rw1OMMjbMmZ6eeA-10" value="&lt;font face=&quot;Courier New&quot; style=&quot;font-size: 24px&quot;&gt;&lt;b&gt;Victim Network&lt;/b&gt;&lt;/font&gt;" style="text;html=1;resizable=0;autosize=1;align=center;verticalAlign=middle;points=[];fillColor=none;strokeColor=none;rounded=0;fontStyle=0" parent="1" vertex="1">
          <mxGeometry x="1179.5" y="625" width="220" height="20" as="geometry" />
        </mxCell>
        <mxCell id="sqYq_Rw1OMMjbMmZ6eeA-11" value="&lt;font face=&quot;Courier New&quot; style=&quot;font-size: 24px&quot;&gt;&lt;b&gt;192.168.2.10&lt;/b&gt;&lt;/font&gt;" style="text;html=1;resizable=0;autosize=1;align=center;verticalAlign=middle;points=[];fillColor=none;strokeColor=none;rounded=0;fontStyle=0" parent="1" vertex="1">
          <mxGeometry x="1194.5" y="650" width="190" height="20" as="geometry" />
        </mxCell>
        <mxCell id="sqYq_Rw1OMMjbMmZ6eeA-12" value="&lt;font face=&quot;Courier New&quot; style=&quot;font-size: 24px&quot;&gt;&lt;b&gt;em2&lt;/b&gt;&lt;/font&gt;" style="text;html=1;resizable=0;autosize=1;align=center;verticalAlign=middle;points=[];fillColor=none;strokeColor=none;rounded=0;fontStyle=0" parent="1" vertex="1">
          <mxGeometry x="1259.5" y="674" width="60" height="20" as="geometry" />
        </mxCell>
        <mxCell id="sqYq_Rw1OMMjbMmZ6eeA-15" value="&lt;font face=&quot;Courier New&quot;&gt;&lt;b&gt;&lt;span style=&quot;font-size: 14px&quot;&gt;Vulnerable Machines&lt;/span&gt;&lt;br&gt;&lt;/b&gt;&lt;/font&gt;" style="text;html=1;resizable=0;autosize=1;align=center;verticalAlign=middle;points=[];fillColor=none;strokeColor=none;rounded=0;" parent="1" vertex="1">
          <mxGeometry x="1215.03" y="590.49" width="180" height="20" as="geometry" />
        </mxCell>
      </root>
    </mxGraphModel>
  </diagram>
</mxfile>
